<?xml version="1.0" encoding="UTF-8" standalone="no"?>
<!-- Created with Inkscape (http://www.inkscape.org/) -->

<svg version="1.1" id="svg1" width="552" height="356" viewBox="0 0 552 356" xmlns="http://www.w3.org/2000/svg" xmlns:svg="http://www.w3.org/2000/svg">
  <defs id="defs1" />
  <path style="fill:#fdb714" d="m 346.36426,342.9716 c -2.39949,-0.21256 -9.59793,-0.745 -15.99654,-1.18318 -30.8542,-2.11291 -40.7283,-4.86142 -62.74391,-17.46509 -13.16708,-7.53801 -27.00111,-19.63711 -35.08177,-30.68217 -0.58413,-0.79842 -4.08658,-5.46337 -7.78322,-10.36655 -9.04919,-12.00274 -18.59776,-26.50383 -28.04274,-42.58759 -11.44159,-19.48378 -16.57533,-25.14795 -32.15273,-35.47483 -13.41245,-8.89165 -16.40697,-9.81886 -25.03903,-7.75304 l -3.73231,0.89321 c -3.28784,0.91167 -4.25746,20.67299 -4.65,23.41269 -2.43163,16.82566 -4.1975,31.49735 -6.06771,50.41334 -0.2504,2.53279 -0.47752,10.1675 -0.50467,16.96603 l -0.0494,12.36097 -0.6123,1.6966 -0.61231,1.69661 h -1.1665 -1.16649 l -0.66002,-1.93898 -0.66006,-1.93898 0.30016,-12.84571 c 0.16508,-7.06513 0.50791,-15.02705 0.76183,-17.69314 0.25392,-2.66609 0.47161,-12.59122 0.48376,-22.05584 0.0331,-25.79772 3.7771,-64.9149 8.97759,-93.79792 1.37843,-7.65563 2.19701,-14.36034 3.63335,-29.75931 l 1.45913,-15.64319 -0.0289,-14.381647 c -0.0159,-7.909911 -0.21397,-15.472325 -0.4402,-16.80537 l -0.41132,-2.423719 0.68259,-0.709804 0.68258,-0.709803 0.66517,0.709803 c 0.36584,0.390392 1.04799,1.800477 1.5159,3.133523 l 0.85073,2.423718 0.39732,17.693142 c 0.21852,9.731237 0.61753,19.983567 0.88668,22.782967 1.2388,12.88426 0.57242,27.17675 -2.39345,51.33516 -0.79869,6.50571 -1.38126,11.89946 -1.29458,11.98613 0.19403,0.19403 17.04933,-3.08576 26.27551,-5.11282 47.9825,-10.54215 76.30354,-37.6976 93.56768,-89.716817 l 2.01097,-6.059299 h 1.16979 1.1698 l -0.13177,3.393206 c -0.33301,8.576253 -5.34956,26.61564 -10.67023,38.36986 -7.81772,17.27061 -24.29946,35.67364 -41.06559,45.85257 -16.31366,9.90426 -30.25874,15.20286 -51.50402,19.5696 -6.92656,1.42368 -7.53998,1.79332 -4.36269,2.62894 4.10093,1.07852 20.70014,11.31838 27.4403,16.9276 5.50117,4.57811 13.35241,15.14904 22.11964,29.78188 37.25457,62.17937 65.15533,87.09122 103.01315,91.97768 l 5.08982,0.65696 h 15.51179 15.5118 l 12.36096,-1.10489 c 32.3279,-2.88962 45.25584,-5.66403 79.49798,-17.06077 14.89711,-4.95817 23.99076,-8.221 35.87104,-12.87065 3.86584,-1.51301 8.58509,-3.26367 10.48724,-3.89037 l 3.45845,-1.13947 1.77776,0.49086 1.77776,0.49086 0.94246,1.54567 c 0.51835,0.85012 0.94327,2.36023 0.94427,3.35581 l 0.002,1.81015 -1.33304,1.45232 c -1.34649,1.46696 -3.27296,2.36483 -23.41382,10.91233 -51.75006,21.96201 -84.63888,29.3641 -117.52543,26.45076 z M 325.4136,302.70751 c -1.36921,-0.55094 -1.73505,-2.0438 -1.44353,-5.89048 2.20908,-29.14942 3.4135,-43.02582 4.41055,-50.8148 0.6655,-5.19888 1.66894,-14.03333 2.22986,-19.63212 2.49366,-24.89027 9.15074,-71.02904 12.08764,-83.77695 0.82686,-3.58907 2.39966,-15.03848 3.17447,-23.10905 0.49123,-5.11675 2.17507,-16.73749 3.4066,-23.510077 2.05368,-11.29387 3.03889,-20.845249 3.57645,-34.672984 l 0.36801,-9.466307 1.29655,-2.832051 c 0.71312,-1.557627 1.29656,-3.038715 1.29656,-3.291305 0,-0.860829 -14.32448,-7.060403 -24.47955,-10.594646 -2.13288,-0.742297 -6.60464,-2.373735 -9.93725,-3.625417 -13.29712,-4.994206 -26.08049,-8.563078 -40.28198,-11.245954 l -4.55683,-0.860851 -25.44904,0.04102 c -31.4198,0.05065 -29.76286,-0.11009 -69.8031,6.771653 -25.73902,4.423783 -68.41463,20.775412 -83.880595,32.139769 -1.722002,1.265322 -5.876347,4.295165 -9.231879,6.732984 l -6.100967,4.432398 -3.727713,1.480805 c -6.633684,2.635181 -7.399461,1.877587 -3.13474,-3.101249 C 88.47036,52.428117 142.43779,27.653156 176.11293,21.570746 c 4.36142,-0.787761 10.64131,-2.075305 13.95531,-2.861209 20.00868,-4.744994 32.9421,-5.986361 62.98285,-6.045178 l 20.60161,-0.04033 6.61291,1.046999 c 12.40432,1.963935 30.22838,6.652658 57.13089,15.028618 19.23056,5.987334 38.78122,15.283681 69.8031,33.191396 4.39906,2.539399 12.57911,7.07419 18.17789,10.077313 5.59879,3.003124 11.59749,6.280916 13.33045,7.283983 1.73296,1.003067 6.94407,3.719823 11.58025,6.037235 8.85352,4.42547 17.8616,9.35973 24.77553,13.57104 2.26618,1.380337 5.19292,3.149697 6.50386,3.931887 4.1827,2.49568 5.10051,4.0485 3.39877,5.75025 -1.28105,1.28105 -2.46116,0.90355 -9.58112,-3.06487 -3.77605,-2.10464 -14.17306,-7.533957 -23.10446,-12.065147 -8.9314,-4.5312 -18.85653,-9.688198 -22.05584,-11.460011 -16.02084,-8.872527 -69.90017,-35.080125 -70.56852,-34.325434 -0.78561,0.887114 -1.45841,8.092176 -1.15126,12.329025 0.50604,6.980334 -1.27446,26.661752 -3.41456,37.74387 -1.93099,9.999337 -5.38697,39.532117 -5.8109,49.656687 -0.15628,3.73254 -0.70741,10.60378 -1.22473,15.26943 -0.51731,4.66566 -1.38341,13.60918 -1.92464,19.8745 -2.30119,26.63836 -4.70694,44.82791 -7.78961,58.89637 -0.81787,3.73252 -2.46969,11.25817 -3.67071,16.72365 -1.20103,5.46549 -2.72917,13.1002 -3.39587,16.96603 l -1.21219,7.02879 -0.28406,9.42675 -0.28406,9.42674 -1.11644,1.11644 c -1.2228,1.22278 -1.38563,1.25695 -2.96378,0.62194 z" id="path1" />
</svg>
